<svg width="79" height="78" viewBox="0 0 79 78" fill="none" xmlns="http://www.w3.org/2000/svg">
<rect width="79" height="78" rx="10" fill="#0FB53E"/>
<path fill-rule="evenodd" clip-rule="evenodd" d="M10.5 10L15.9384 62.3624L39.5 68L63.0616 62.3624L68.5 10H10.5ZM56.8215 26.9708L39.4795 33.5625L39.4352 33.577H56.2108L54.29 53.1868L39.5034 57.0235L39.4795 57.0148V57.0235L24.6111 53.1143L23.6558 43.2398H31.032L31.5096 48.3554L39.4113 50.1273L39.4795 50.1099V50.1186L47.6575 48.0712L48.2171 39.8294L39.4795 39.8062L23.1713 39.7598L22.6152 33.577L39.4795 27.3333L40.4621 26.9708H21.9772L21.0935 20.6488H57.5414L56.8215 26.9708Z" fill="#1B0131"/>
</svg>
