<svg width="79" height="78" viewBox="0 0 79 78" fill="none" xmlns="http://www.w3.org/2000/svg">
<rect width="79" height="78" rx="10" fill="#0FB53E"/>
<path d="M39.5014 39.002C39.5014 26.1169 68.5 26.1169 68.5 39.002C68.5 51.8872 39.5014 51.8872 39.5014 39.002ZM10.5027 58.3361C10.5016 57.0666 10.8759 55.8093 11.6041 54.6362C12.3323 53.4631 13.4002 52.3973 14.7467 51.4995C16.0932 50.6018 17.6918 49.8898 19.4513 49.4043C21.2107 48.9188 23.0965 48.6693 25.0007 48.67H39.4986V58.3361C39.4986 71.2213 10.5 71.2213 10.5 58.3361H10.5027ZM39.5014 10.0018V29.3359H53.9993C73.3254 29.3359 73.3254 10.0018 53.9993 10.0018H39.5014ZM10.5027 19.668C10.5016 20.9375 10.8759 22.1948 11.6041 23.3679C12.3323 24.5409 13.4002 25.6068 14.7467 26.5045C16.0932 27.4023 17.6918 28.1142 19.4513 28.5998C21.2107 29.0853 23.0965 29.3348 25.0007 29.3341H39.4986V10H25.0007C23.0965 9.99929 21.2107 10.2488 19.4513 10.7343C17.6918 11.2199 16.0932 11.9318 14.7467 12.8296C13.4002 13.7273 12.3323 14.7932 11.6041 15.9662C10.8759 17.1393 10.5016 18.3966 10.5027 19.6661V19.668ZM10.5027 39.002C10.5016 40.2716 10.8759 41.5289 11.6041 42.702C12.3323 43.875 13.4002 44.9409 14.7467 45.8386C16.0932 46.7364 17.6918 47.4483 19.4513 47.9338C21.2107 48.4194 23.0965 48.6707 25.0007 48.67H39.4986V29.3341H25.0007C23.0965 29.3334 21.2107 29.5829 19.4513 30.0684C17.6918 30.5539 16.0932 31.2659 14.7467 32.1636C13.4002 33.0614 12.3323 34.1272 11.6041 35.3003C10.8759 36.4734 10.5016 37.7306 10.5027 39.0002V39.002Z" fill="#1B0131"/>
</svg>
