<svg width="79" height="78" viewBox="0 0 79 78" fill="none" xmlns="http://www.w3.org/2000/svg">
<rect width="79" height="78" rx="10" fill="#0FB53E"/>
<path d="M11 10V68H68V10H11ZM42.0202 55.2338C42.0202 60.8784 38.7631 63.4553 34.0178 63.4553C29.7306 63.4553 27.2491 61.2036 25.9768 58.4714L30.3413 55.791C31.1821 57.3052 31.9455 58.5874 33.7898 58.5874C35.5446 58.5874 36.6642 57.8873 36.6642 55.1571V36.6303H42.0202V55.2338ZM54.6905 63.4553C49.7152 63.4553 46.4967 61.0483 44.9313 57.8873L49.2959 55.3249C50.442 57.2286 51.9423 58.6392 54.5765 58.6392C56.7893 58.6392 58.2164 57.5124 58.2164 55.9464C58.2164 54.0821 56.7649 53.4213 54.3098 52.3214L52.9744 51.7393C49.1065 50.0697 46.5497 47.9589 46.5497 43.5178C46.5497 39.4267 49.6155 36.3196 54.3872 36.3196C57.797 36.3196 60.2399 37.5231 61.9967 40.682L57.8235 43.4018C56.9074 41.7322 55.914 41.0714 54.375 41.0714C52.8115 41.0714 51.8181 42.0823 51.8181 43.4018C51.8181 45.0341 52.8115 45.6928 55.1139 46.7161L56.4494 47.2981C61.0053 49.2784 63.5621 51.3126 63.5621 55.8676C63.5621 60.7624 59.7696 63.4532 54.6925 63.4532L54.6905 63.4553Z" fill="#1B0131"/>
</svg>
