<svg width="646" height="247" viewBox="0 0 646 247" fill="none" xmlns="http://www.w3.org/2000/svg">
<path d="M82.976 18.744C82.976 21.288 83.312 23.12 83.984 24.24C84.656 25.344 85.976 25.896 87.944 25.896C89.928 25.896 91.256 25.352 91.928 24.264C92.6 23.176 92.936 21.36 92.936 18.816C92.936 16.256 92.584 14.384 91.88 13.2C91.176 12.016 89.864 11.424 87.944 11.424C85.96 11.424 84.624 12.064 83.936 13.344C83.568 14 83.312 14.752 83.168 15.6C83.04 16.448 82.976 17.496 82.976 18.744ZM94.472 18.792C94.472 21.768 94 23.92 93.056 25.248C92.128 26.576 90.424 27.24 87.944 27.24C85.48 27.24 83.776 26.56 82.832 25.2C81.904 23.84 81.44 21.696 81.44 18.768C81.44 15.824 81.912 13.64 82.856 12.216C83.8 10.792 85.496 10.08 87.944 10.08C90.392 10.08 92.088 10.792 93.032 12.216C93.992 13.624 94.472 15.816 94.472 18.792ZM97.8346 27V9.672H99.2506V27H97.8346ZM111.244 18.576V25.008C111.308 25.6 111.828 25.952 112.804 26.064L112.732 27.216C111.5 27.216 110.596 26.896 110.02 26.256C108.516 26.912 107.012 27.24 105.508 27.24C104.436 27.24 103.62 26.936 103.06 26.328C102.5 25.704 102.22 24.824 102.22 23.688C102.22 22.536 102.5 21.688 103.06 21.144C103.636 20.584 104.532 20.24 105.748 20.112L109.828 19.704V18.576C109.828 17.68 109.628 17.04 109.228 16.656C108.844 16.256 108.324 16.056 107.668 16.056C106.644 16.056 105.316 16.152 103.684 16.344L102.94 16.416L102.868 15.264C104.628 14.928 106.164 14.76 107.476 14.76C108.804 14.76 109.764 15.072 110.356 15.696C110.948 16.32 111.244 17.28 111.244 18.576ZM103.708 23.592C103.708 25.208 104.372 26.016 105.7 26.016C106.276 26.016 106.908 25.952 107.596 25.824C108.284 25.68 108.828 25.536 109.228 25.392L109.828 25.176V20.832L105.916 21.24C105.132 21.304 104.564 21.528 104.212 21.912C103.876 22.296 103.708 22.856 103.708 23.592ZM104.14 11.64L109.108 9.312L109.636 10.56L104.596 12.648L104.14 11.64ZM114.076 29.952L115.132 24.624H116.74L115.276 29.952H114.076ZM133.291 25.8L134.011 25.728L134.059 26.904C132.251 27.128 130.723 27.24 129.475 27.24C127.747 27.224 126.539 26.712 125.851 25.704C125.163 24.696 124.819 23.144 124.819 21.048C124.819 16.856 126.467 14.76 129.763 14.76C131.347 14.76 132.531 15.216 133.315 16.128C134.099 17.024 134.491 18.464 134.491 20.448L134.443 21.6H126.283C126.283 23.072 126.531 24.168 127.027 24.888C127.539 25.592 128.403 25.944 129.619 25.944C130.851 25.944 132.075 25.896 133.291 25.8ZM126.283 20.4H133.051C133.051 18.816 132.787 17.688 132.259 17.016C131.747 16.344 130.915 16.008 129.763 16.008C128.627 16.008 127.763 16.36 127.171 17.064C126.579 17.752 126.283 18.864 126.283 20.4ZM145.025 15H146.441V27H145.025V26.112C143.793 26.864 142.561 27.24 141.329 27.24C139.697 27.24 138.617 26.824 138.089 25.992C137.577 25.16 137.321 23.584 137.321 21.264V15H138.737V21.24C138.737 23.096 138.905 24.344 139.241 24.984C139.593 25.624 140.345 25.944 141.497 25.944C142.057 25.944 142.633 25.864 143.225 25.704C143.817 25.528 144.265 25.352 144.569 25.176L145.025 24.936V15ZM158.947 16.08C157.059 16.08 156.115 16.76 156.115 18.12C156.115 18.744 156.323 19.184 156.739 19.44C157.155 19.696 158.091 19.952 159.547 20.208C161.019 20.448 162.051 20.784 162.643 21.216C163.251 21.648 163.555 22.48 163.555 23.712C163.555 24.928 163.163 25.824 162.379 26.4C161.595 26.96 160.443 27.24 158.923 27.24C158.043 27.24 156.907 27.128 155.515 26.904L154.819 26.808L154.915 25.536C156.707 25.808 158.083 25.944 159.043 25.944C160.003 25.944 160.747 25.776 161.275 25.44C161.819 25.104 162.091 24.536 162.091 23.736C162.091 22.936 161.867 22.408 161.419 22.152C160.987 21.88 160.043 21.632 158.587 21.408C157.147 21.184 156.131 20.864 155.539 20.448C154.947 20.032 154.651 19.248 154.651 18.096C154.651 16.944 155.059 16.104 155.875 15.576C156.691 15.048 157.699 14.784 158.899 14.784C159.859 14.784 161.059 14.888 162.499 15.096L163.147 15.192L163.099 16.464C161.387 16.208 160.003 16.08 158.947 16.08ZM165.952 20.976C165.952 18.72 166.328 17.12 167.08 16.176C167.848 15.232 169.144 14.76 170.968 14.76C172.808 14.76 174.104 15.232 174.856 16.176C175.624 17.12 176.008 18.72 176.008 20.976C176.008 23.232 175.656 24.84 174.952 25.8C174.264 26.76 172.944 27.24 170.992 27.24C169.04 27.24 167.712 26.76 167.008 25.8C166.304 24.84 165.952 23.232 165.952 20.976ZM167.44 20.952C167.44 22.84 167.656 24.152 168.088 24.888C168.536 25.608 169.496 25.968 170.968 25.968C172.456 25.968 173.424 25.6 173.872 24.864C174.32 24.128 174.544 22.824 174.544 20.952C174.544 19.064 174.288 17.776 173.776 17.088C173.28 16.384 172.352 16.032 170.992 16.032C169.632 16.032 168.696 16.376 168.184 17.064C167.688 17.752 167.44 19.048 167.44 20.952ZM186.697 15H188.113V27H186.697V26.112C185.465 26.864 184.233 27.24 183.001 27.24C181.369 27.24 180.289 26.824 179.761 25.992C179.249 25.16 178.993 23.584 178.993 21.264V15H180.409V21.24C180.409 23.096 180.577 24.344 180.913 24.984C181.265 25.624 182.017 25.944 183.169 25.944C183.729 25.944 184.305 25.864 184.897 25.704C185.489 25.528 185.937 25.352 186.241 25.176L186.697 24.936V15Z" fill="white"/>
<path d="M203.115 21.888H199.755V27H197.091V10.56H203.115C206.843 10.56 208.707 12.4 208.707 16.08C208.707 17.968 208.235 19.408 207.291 20.4C206.363 21.392 204.971 21.888 203.115 21.888ZM199.755 19.584H203.091C205.011 19.584 205.971 18.416 205.971 16.08C205.971 14.96 205.739 14.144 205.275 13.632C204.811 13.12 204.083 12.864 203.091 12.864H199.755V19.584ZM219.722 18.696V24.168C219.738 24.52 219.826 24.784 219.986 24.96C220.162 25.12 220.426 25.224 220.778 25.272L220.706 27.264C219.33 27.264 218.266 26.968 217.514 26.376C216.234 26.968 214.946 27.264 213.65 27.264C211.266 27.264 210.074 25.992 210.074 23.448C210.074 22.232 210.394 21.352 211.034 20.808C211.69 20.264 212.69 19.936 214.034 19.824L217.13 19.56V18.696C217.13 18.056 216.986 17.608 216.698 17.352C216.426 17.096 216.018 16.968 215.474 16.968C214.45 16.968 213.17 17.032 211.634 17.16L210.866 17.208L210.77 15.36C212.514 14.944 214.114 14.736 215.57 14.736C217.042 14.736 218.098 15.056 218.738 15.696C219.394 16.32 219.722 17.32 219.722 18.696ZM214.346 21.672C213.242 21.768 212.69 22.368 212.69 23.472C212.69 24.576 213.178 25.128 214.154 25.128C214.954 25.128 215.802 25 216.698 24.744L217.13 24.6V21.408L214.346 21.672ZM230.278 15H232.87V27H230.278V26.256C229.11 26.928 228.03 27.264 227.038 27.264C225.39 27.264 224.286 26.824 223.726 25.944C223.166 25.048 222.886 23.488 222.886 21.264V15H225.502V21.288C225.502 22.728 225.622 23.696 225.862 24.192C226.102 24.688 226.662 24.936 227.542 24.936C228.406 24.936 229.198 24.776 229.918 24.456L230.278 24.312V15ZM236.181 27V10.008H238.797V27H236.181ZM242.755 16.296C243.587 15.256 244.963 14.736 246.883 14.736C248.803 14.736 250.171 15.256 250.987 16.296C251.819 17.336 252.235 18.896 252.235 20.976C252.235 23.056 251.835 24.624 251.035 25.68C250.235 26.736 248.851 27.264 246.883 27.264C244.915 27.264 243.531 26.736 242.731 25.68C241.931 24.624 241.531 23.056 241.531 20.976C241.531 18.896 241.939 17.336 242.755 16.296ZM244.723 24.096C245.091 24.736 245.811 25.056 246.883 25.056C247.955 25.056 248.675 24.736 249.043 24.096C249.411 23.456 249.595 22.408 249.595 20.952C249.595 19.496 249.395 18.464 248.995 17.856C248.611 17.248 247.907 16.944 246.883 16.944C245.859 16.944 245.147 17.248 244.747 17.856C244.363 18.464 244.171 19.496 244.171 20.952C244.171 22.408 244.355 23.456 244.723 24.096ZM270.187 27V19.896H263.083V27H260.419V10.56H263.083V17.568H270.187V10.56H272.875V27H270.187ZM284.73 24.84L285.402 24.768L285.45 26.712C283.626 27.08 282.01 27.264 280.602 27.264C278.826 27.264 277.546 26.776 276.762 25.8C275.994 24.824 275.61 23.264 275.61 21.12C275.61 16.864 277.346 14.736 280.818 14.736C284.178 14.736 285.858 16.568 285.858 20.232L285.69 22.104H278.25C278.266 23.096 278.482 23.824 278.898 24.288C279.314 24.752 280.09 24.984 281.226 24.984C282.362 24.984 283.53 24.936 284.73 24.84ZM283.29 20.088C283.29 18.904 283.098 18.08 282.714 17.616C282.346 17.136 281.714 16.896 280.818 16.896C279.922 16.896 279.266 17.144 278.85 17.64C278.45 18.136 278.242 18.952 278.226 20.088H283.29ZM290.989 27H288.373V15H290.965V15.744C292.133 15.072 293.237 14.736 294.277 14.736C295.877 14.736 296.965 15.192 297.541 16.104C298.133 17 298.429 18.488 298.429 20.568V27H295.837V20.64C295.837 19.344 295.693 18.424 295.405 17.88C295.133 17.336 294.565 17.064 293.701 17.064C292.885 17.064 292.101 17.224 291.349 17.544L290.989 17.688V27ZM301.475 27V15H304.067V16.44C305.427 15.56 306.787 14.992 308.147 14.736V17.352C306.771 17.624 305.595 17.976 304.619 18.408L304.091 18.624V27H301.475ZM310.146 27V15H312.763V27H310.146ZM310.146 12.96V10.2H312.763V12.96H310.146ZM320.088 27.264C318.44 27.264 317.24 26.8 316.488 25.872C315.752 24.944 315.384 23.32 315.384 21C315.384 18.664 315.816 17.04 316.68 16.128C317.56 15.2 319.072 14.736 321.216 14.736C322 14.736 323.2 14.808 324.816 14.952L325.608 15.024V32.16H323.016V26.544C321.944 27.024 320.968 27.264 320.088 27.264ZM321.216 16.992C319.952 16.992 319.096 17.312 318.648 17.952C318.216 18.576 318 19.6 318 21.024C318 22.448 318.192 23.456 318.576 24.048C318.976 24.64 319.584 24.936 320.4 24.936C321.152 24.936 321.904 24.816 322.656 24.576L323.016 24.456V17.088C322.248 17.024 321.648 16.992 321.216 16.992ZM336.051 15H338.643V27H336.051V26.256C334.883 26.928 333.803 27.264 332.811 27.264C331.163 27.264 330.059 26.824 329.499 25.944C328.939 25.048 328.659 23.488 328.659 21.264V15H331.275V21.288C331.275 22.728 331.395 23.696 331.635 24.192C331.875 24.688 332.435 24.936 333.315 24.936C334.179 24.936 334.971 24.776 335.691 24.456L336.051 24.312V15ZM350.355 24.84L351.027 24.768L351.075 26.712C349.251 27.08 347.635 27.264 346.227 27.264C344.451 27.264 343.171 26.776 342.387 25.8C341.619 24.824 341.235 23.264 341.235 21.12C341.235 16.864 342.971 14.736 346.443 14.736C349.803 14.736 351.483 16.568 351.483 20.232L351.315 22.104H343.875C343.891 23.096 344.107 23.824 344.523 24.288C344.939 24.752 345.715 24.984 346.851 24.984C347.987 24.984 349.155 24.936 350.355 24.84ZM348.915 20.088C348.915 18.904 348.723 18.08 348.339 17.616C347.971 17.136 347.339 16.896 346.443 16.896C345.547 16.896 344.891 17.144 344.475 17.64C344.075 18.136 343.867 18.952 343.851 20.088H348.915Z" fill="#0FB53E"/>
<path d="M60.416 84.816L27.008 97.488L60.416 111.312V128.72L8.448 104.912V90.832L60.416 67.408V84.816ZM604.047 187.488L570.639 174.816V157.408L622.607 180.832V194.912L570.639 218.72V201.312L604.047 187.488Z" fill="#0FB53E"/>
<path d="M81.097 130V42.96H136.649V58.32H98.761V83.92H129.737V99.28H98.761V130H81.097ZM145.436 130V66H162.46V72.784C169.628 68.5173 176.455 65.744 182.94 64.464V81.744C176.028 83.1947 170.097 84.688 165.148 86.224L162.588 87.12V130H145.436ZM196.517 73.296C201.04 67.408 208.592 64.464 219.173 64.464C229.754 64.464 237.306 67.408 241.829 73.296C246.352 79.0987 248.613 87.2907 248.613 97.872C248.613 120.315 238.8 131.536 219.173 131.536C199.546 131.536 189.733 120.315 189.733 97.872C189.733 87.2907 191.994 79.0987 196.517 73.296ZM209.701 112.336C211.493 115.408 214.65 116.944 219.173 116.944C223.696 116.944 226.81 115.408 228.517 112.336C230.309 109.264 231.205 104.443 231.205 97.872C231.205 91.3013 230.309 86.5227 228.517 83.536C226.81 80.5493 223.696 79.056 219.173 79.056C214.65 79.056 211.493 80.5493 209.701 83.536C207.994 86.5227 207.141 91.3013 207.141 97.872C207.141 104.443 207.994 109.264 209.701 112.336ZM278.338 130H261.186V66H278.21V69.584C284.013 66.1707 289.346 64.464 294.21 64.464C302.743 64.464 308.631 66.9813 311.874 72.016C315.117 77.0507 316.738 84.816 316.738 95.312V130H299.586V95.824C299.586 90.3627 298.946 86.352 297.666 83.792C296.386 81.1467 293.826 79.824 289.986 79.824C286.487 79.824 283.117 80.4213 279.874 81.616L278.338 82.128V130ZM367.392 80.592H351.648V106.832C351.648 109.392 351.691 111.227 351.776 112.336C351.947 113.36 352.416 114.256 353.184 115.024C354.037 115.792 355.317 116.176 357.024 116.176L366.752 115.92L367.52 129.616C361.803 130.896 357.451 131.536 354.464 131.536C346.784 131.536 341.536 129.829 338.72 126.416C335.904 122.917 334.496 116.517 334.496 107.216V80.592H326.944V66H334.496V48.208H351.648V66H367.392V80.592ZM392.641 105.296C392.726 109.221 393.75 112.08 395.713 113.872C397.761 115.579 400.662 116.432 404.417 116.432C412.353 116.432 419.436 116.176 425.665 115.664L429.249 115.28L429.505 127.952C419.692 130.341 410.817 131.536 402.881 131.536C393.238 131.536 386.241 128.976 381.889 123.856C377.537 118.736 375.361 110.416 375.361 98.896C375.361 75.9413 384.79 64.464 403.649 64.464C422.252 64.464 431.553 74.1067 431.553 93.392L430.273 105.296H392.641ZM414.657 92.24C414.657 87.12 413.846 83.5787 412.225 81.616C410.604 79.568 407.745 78.544 403.649 78.544C399.638 78.544 396.78 79.6107 395.073 81.744C393.452 83.792 392.598 87.2907 392.513 92.24H414.657ZM460.963 130H443.811V66H460.835V69.584C466.638 66.1707 471.971 64.464 476.835 64.464C485.368 64.464 491.256 66.9813 494.499 72.016C497.742 77.0507 499.363 84.816 499.363 95.312V130H482.211V95.824C482.211 90.3627 481.571 86.352 480.291 83.792C479.011 81.1467 476.451 79.824 472.611 79.824C469.112 79.824 465.742 80.4213 462.499 81.616L460.963 82.128V130ZM568.961 40.4V130H551.937V127.312C545.964 130.128 540.801 131.536 536.449 131.536C527.148 131.536 520.662 128.848 516.993 123.472C513.324 118.096 511.489 109.605 511.489 98C511.489 86.3093 513.665 77.8187 518.017 72.528C522.454 67.152 529.11 64.464 537.985 64.464C540.716 64.464 544.513 64.8907 549.377 65.744L551.809 66.256V40.4H568.961ZM550.017 114.64L551.809 114.256V80.592C547.116 79.7387 542.934 79.312 539.265 79.312C532.353 79.312 528.897 85.456 528.897 97.744C528.897 104.4 529.665 109.136 531.201 111.952C532.737 114.768 535.254 116.176 538.753 116.176C542.337 116.176 546.092 115.664 550.017 114.64ZM38.784 220H9.472V132.96H38.784C46.2933 132.96 52.48 133.771 57.344 135.392C62.208 136.928 65.9627 139.531 68.608 143.2C71.3387 146.784 73.216 151.051 74.24 156C75.264 160.864 75.776 167.221 75.776 175.072C75.776 182.923 75.3067 189.451 74.368 194.656C73.4293 199.776 71.6373 204.384 68.992 208.48C66.432 212.491 62.6773 215.435 57.728 217.312C52.7787 219.104 46.464 220 38.784 220ZM57.344 185.44C57.5147 182.709 57.6 178.955 57.6 174.176C57.6 169.312 57.4293 165.429 57.088 162.528C56.7467 159.627 55.936 156.981 54.656 154.592C53.376 152.203 51.456 150.581 48.896 149.728C46.4213 148.789 43.0507 148.32 38.784 148.32H27.136V204.64H38.784C45.184 204.64 49.8347 203.019 52.736 199.776C55.2107 197.131 56.7467 192.352 57.344 185.44ZM103.641 195.296C103.726 199.221 104.75 202.08 106.713 203.872C108.761 205.579 111.662 206.432 115.417 206.432C123.353 206.432 130.436 206.176 136.665 205.664L140.249 205.28L140.505 217.952C130.692 220.341 121.817 221.536 113.881 221.536C104.238 221.536 97.241 218.976 92.889 213.856C88.537 208.736 86.361 200.416 86.361 188.896C86.361 165.941 95.7903 154.464 114.649 154.464C133.252 154.464 142.553 164.107 142.553 183.392L141.273 195.296H103.641ZM125.657 182.24C125.657 177.12 124.846 173.579 123.225 171.616C121.604 169.568 118.745 168.544 114.649 168.544C110.638 168.544 107.78 169.611 106.073 171.744C104.452 173.792 103.598 177.291 103.513 182.24H125.657ZM148.045 156H165.965L176.205 205.408H179.789L190.541 156H207.949L192.589 220H163.405L148.045 156ZM231.016 195.296C231.101 199.221 232.125 202.08 234.088 203.872C236.136 205.579 239.037 206.432 242.792 206.432C250.728 206.432 257.811 206.176 264.04 205.664L267.624 205.28L267.88 217.952C258.067 220.341 249.192 221.536 241.256 221.536C231.613 221.536 224.616 218.976 220.264 213.856C215.912 208.736 213.736 200.416 213.736 188.896C213.736 165.941 223.165 154.464 242.024 154.464C260.627 154.464 269.928 164.107 269.928 183.392L268.648 195.296H231.016ZM253.032 182.24C253.032 177.12 252.221 173.579 250.6 171.616C248.979 169.568 246.12 168.544 242.024 168.544C238.013 168.544 235.155 169.611 233.448 171.744C231.827 173.792 230.973 177.291 230.888 182.24H253.032ZM282.954 220V130.4H300.106V220H282.954ZM320.142 163.296C324.665 157.408 332.217 154.464 342.798 154.464C353.379 154.464 360.931 157.408 365.454 163.296C369.977 169.099 372.238 177.291 372.238 187.872C372.238 210.315 362.425 221.536 342.798 221.536C323.171 221.536 313.358 210.315 313.358 187.872C313.358 177.291 315.619 169.099 320.142 163.296ZM333.326 202.336C335.118 205.408 338.275 206.944 342.798 206.944C347.321 206.944 350.435 205.408 352.142 202.336C353.934 199.264 354.83 194.443 354.83 187.872C354.83 181.301 353.934 176.523 352.142 173.536C350.435 170.549 347.321 169.056 342.798 169.056C338.275 169.056 335.118 170.549 333.326 173.536C331.619 176.523 330.766 181.301 330.766 187.872C330.766 194.443 331.619 199.264 333.326 202.336ZM384.811 246.88V156H401.835V159.456C407.382 156.128 412.246 154.464 416.427 154.464C425.046 154.464 431.403 157.067 435.499 162.272C439.595 167.392 441.643 176.139 441.643 188.512C441.643 200.885 439.382 209.504 434.859 214.368C430.336 219.147 422.912 221.536 412.587 221.536C409.771 221.536 406.742 221.28 403.499 220.768L401.963 220.512V246.88H384.811ZM413.099 169.824C409.942 169.824 406.742 170.464 403.499 171.744L401.963 172.384V205.92C405.803 206.432 408.918 206.688 411.307 206.688C416.256 206.688 419.627 205.237 421.419 202.336C423.296 199.435 424.235 194.485 424.235 187.488C424.235 175.712 420.523 169.824 413.099 169.824ZM468.516 195.296C468.601 199.221 469.625 202.08 471.588 203.872C473.636 205.579 476.537 206.432 480.292 206.432C488.228 206.432 495.311 206.176 501.54 205.664L505.124 205.28L505.38 217.952C495.567 220.341 486.692 221.536 478.756 221.536C469.113 221.536 462.116 218.976 457.764 213.856C453.412 208.736 451.236 200.416 451.236 188.896C451.236 165.941 460.665 154.464 479.524 154.464C498.127 154.464 507.428 164.107 507.428 183.392L506.148 195.296H468.516ZM490.532 182.24C490.532 177.12 489.721 173.579 488.1 171.616C486.479 169.568 483.62 168.544 479.524 168.544C475.513 168.544 472.655 169.611 470.948 171.744C469.327 173.792 468.473 177.291 468.388 182.24H490.532ZM519.686 220V156H536.71V162.784C543.878 158.517 550.705 155.744 557.19 154.464V171.744C550.278 173.195 544.347 174.688 539.398 176.224L536.838 177.12V220H519.686Z" fill="white"/>
</svg>
