<svg width="79" height="78" viewBox="0 0 79 78" fill="none" xmlns="http://www.w3.org/2000/svg">
<rect width="79" height="78" rx="10" fill="#0FB53E"/>
<path d="M53.5301 64.3858C53.3149 64.4991 53.3376 64.5331 53.5414 64.4311L53.7112 64.3179C53.7112 64.2839 53.7112 64.2839 53.5301 64.3858ZM53.9604 64.1479L53.983 64.1819L54.1076 64.0913L53.9604 64.1479ZM54.2435 63.978L54.2661 64.012L54.3907 63.9213L54.2435 63.978ZM54.5266 63.808L54.5379 63.8307L54.6624 63.74L54.5266 63.808ZM54.9116 63.5588C54.7191 63.6947 54.6398 63.774 54.821 63.6834L55.1154 63.4455L54.9116 63.5588ZM37.5863 10.0147C37.4504 10.026 37.0541 10.06 36.7144 10.094C28.4707 10.8417 20.7706 15.283 15.8788 22.1148C13.1724 25.8536 11.4285 30.2155 10.7604 34.7814C10.534 36.3789 10.5 36.8434 10.5 39.0073C10.5 41.1713 10.534 41.6358 10.7604 43.222C12.3344 54.1211 20.0799 63.2642 30.5882 66.6518C32.4793 67.2522 34.461 67.6714 36.7144 67.932C37.5863 68.0227 41.3797 68.0227 42.263 67.932C46.1583 67.5015 49.4535 66.5385 52.7148 64.873C53.213 64.6238 53.3036 64.5558 53.247 64.4991C51.6503 62.3918 50.0877 60.2845 48.525 58.1658L43.8936 51.9118L38.0959 43.3126C36.1595 40.4349 34.2232 37.5685 32.2415 34.7134C32.2189 34.7134 32.1962 38.5315 32.1849 43.1993C32.1622 51.368 32.1622 51.6966 32.0603 51.8892C31.9584 52.1158 31.7886 52.3084 31.5621 52.4104C31.3809 52.4897 31.2224 52.5123 30.3618 52.5123H29.3766L29.1162 52.3537C28.9576 52.2517 28.8218 52.1045 28.7425 51.9345L28.6179 51.6739L28.6292 40.3103L28.6519 28.9466L28.8331 28.72L29.2521 28.3801C29.4898 28.2668 29.5804 28.2441 30.5656 28.2441C31.7206 28.2441 31.9018 28.2895 32.2075 28.618C34.5515 32.1189 36.8955 35.6311 39.1943 39.1546C42.9651 44.8648 48.106 52.6596 50.6312 56.489L55.2286 63.4455L55.4551 63.2982C57.6632 61.8253 59.6675 60.0692 61.4114 58.0639C65.0689 53.8832 67.4356 48.7395 68.2396 43.2446C68.4774 41.6472 68.5 41.1826 68.5 39.0187C68.5 36.8547 68.466 36.3902 68.2396 34.804C66.6316 23.8935 58.8862 14.7505 48.3891 11.3629C46.4301 10.7398 44.4032 10.3206 42.3649 10.1053C41.81 10.0373 38.0619 9.96936 37.5863 10.0147ZM49.4535 27.5644C49.7253 27.689 49.9291 27.9382 50.031 28.2215C50.0763 28.3688 50.0877 31.5297 50.0763 38.6221L50.0537 48.8188L48.2645 46.0657L46.4641 43.3126V35.9143C46.4641 31.1105 46.4867 28.4254 46.5094 28.2895C46.5886 27.9836 46.8038 27.7343 47.0756 27.5757C47.302 27.4624 47.3813 27.4511 48.2872 27.4511C49.1251 27.4397 49.261 27.4511 49.4535 27.5644Z" fill="#1B0131"/>
</svg>
