<svg width="79" height="78" viewBox="0 0 79 78" fill="none" xmlns="http://www.w3.org/2000/svg">
<rect width="79" height="78" rx="10" fill="#0FB53E"/>
<path d="M39.5 33.3007C42.2786 33.3007 44.5446 35.8337 44.5446 39C44.5446 42.0155 42.2786 44.5786 39.5 44.5786C36.7214 44.5786 34.4553 42.0155 34.4553 39C34.4553 35.8337 36.7214 33.3007 39.5 33.3007ZM27.0098 63.1239C28.7093 64.2697 32.4321 62.5208 36.7214 57.9975C35.3186 56.2184 33.9428 54.2885 32.6479 52.2681C30.474 52.0356 28.3128 51.6732 26.1735 51.1826C24.7977 57.6357 25.3102 62.0684 27.0098 63.1239ZM28.9251 45.815L28.1428 44.2771C27.846 45.1516 27.5493 46.0261 27.3605 46.8704C28.0888 47.0513 28.8981 47.2021 29.7344 47.3529L28.9251 45.815ZM46.5679 43.5232L48.753 39L46.5679 34.4768C45.7586 32.8786 44.8953 31.4613 44.113 30.044C42.6563 29.9536 41.1186 29.9536 39.5 29.9536C37.8814 29.9536 36.3437 29.9536 34.887 30.044C34.1046 31.4613 33.2414 32.8786 32.4321 34.4768L30.247 39L32.4321 43.5232C33.2414 45.1214 34.1046 46.5387 34.887 47.956C36.3437 48.0465 37.8814 48.0465 39.5 48.0465C41.1186 48.0465 42.6563 48.0465 44.113 47.956C44.8953 46.5387 45.7586 45.1214 46.5679 43.5232ZM39.5 23.2592C38.9874 23.9226 38.4479 24.6161 37.9084 25.4303H41.0916C40.5521 24.6161 40.0126 23.9226 39.5 23.2592ZM39.5 54.7408C40.0126 54.0774 40.5521 53.3839 41.0916 52.5697H37.9084C38.4479 53.3839 38.9874 54.0774 39.5 54.7408ZM51.9633 14.8761C50.2907 13.7303 46.5679 15.4792 42.2786 20.0025C43.6814 21.7816 45.0572 23.7115 46.3521 25.7319C48.5642 25.9731 50.7493 26.335 52.8265 26.8174C54.2023 20.3643 53.6898 15.9316 51.9633 14.8761ZM50.0749 32.185L50.8572 33.7229C51.1539 32.8484 51.4507 31.9739 51.6395 31.1296C50.9112 30.9487 50.1019 30.7979 49.2656 30.6471L50.0749 32.185ZM53.9865 10.9259C57.9521 13.4589 58.3837 20.1231 56.7112 27.903C63.5633 30.1646 68.5 33.9038 68.5 39C68.5 44.0962 63.5633 47.8354 56.7112 50.097C58.3837 57.8769 57.9521 64.5411 53.9865 67.0741C50.0479 69.6072 44.6795 66.7123 39.5 61.194C34.3205 66.7123 28.9521 69.6072 24.9865 67.0741C21.0479 64.5411 20.6163 57.8769 22.2888 50.097C15.4367 47.8354 10.5 44.0962 10.5 39C10.5 33.9038 15.4367 30.1646 22.2888 27.903C20.6163 20.1231 21.0479 13.4589 24.9865 10.9259C28.9521 8.39285 34.3205 11.2877 39.5 16.806C44.6795 11.2877 50.0479 8.39285 53.9865 10.9259ZM53.2042 39C54.1214 41.2616 54.9307 43.5232 55.6051 45.815C61.2702 43.9152 64.4535 41.2013 64.4535 39C64.4535 36.7987 61.2702 34.0848 55.6051 32.185C54.9307 34.4768 54.1214 36.7384 53.2042 39ZM25.7958 39C24.8786 36.7384 24.0693 34.4768 23.3949 32.185C17.7298 34.0848 14.5465 36.7987 14.5465 39C14.5465 41.2013 17.7298 43.9152 23.3949 45.815C24.0693 43.5232 24.8786 41.2616 25.7958 39ZM50.0749 45.815L49.2656 47.3529C50.1019 47.2021 50.9112 47.0513 51.6395 46.8704C51.4507 46.0261 51.1539 45.1516 50.8572 44.2771L50.0749 45.815ZM42.2786 57.9975C46.5679 62.5208 50.2907 64.2697 51.9633 63.1239C53.6898 62.0684 54.2023 57.6357 52.8265 51.1826C50.7493 51.665 48.5642 52.0269 46.3521 52.2681C45.0572 54.2885 43.6814 56.2184 42.2786 57.9975ZM28.9251 32.185L29.7344 30.6471C28.8981 30.7979 28.0888 30.9487 27.3605 31.1296C27.5493 31.9739 27.846 32.8484 28.1428 33.7229L28.9251 32.185ZM36.7214 20.0025C32.4321 15.4792 28.7093 13.7303 27.0098 14.8761C25.3102 15.9316 24.7977 20.3643 26.1735 26.8174C28.3128 26.3268 30.474 25.9644 32.6479 25.7319C33.9428 23.7115 35.3186 21.7816 36.7214 20.0025Z" fill="#1B0131"/>
</svg>
