<svg width="79" height="78" viewBox="0 0 79 78" fill="none" xmlns="http://www.w3.org/2000/svg">
<rect width="79" height="78" rx="10" fill="#0FB53E"/>
<path d="M39.5 10C31.7667 10 26.9333 16.4444 25 29.3333C27.9 22.8889 31.2833 20.4722 35.15 22.0833C37.3564 23.0017 38.9321 25.6681 40.6793 28.6244C43.5238 33.4336 46.8128 39 54 39C61.7333 39 66.5667 32.5556 68.5 19.6667C65.6 26.1111 62.2167 28.5278 58.35 26.9167C56.1436 25.9983 54.5679 23.3319 52.8207 20.3756C49.9787 15.5664 46.6896 10 39.5 10ZM25 39C17.2667 39 12.4333 45.4444 10.5 58.3333C13.4 51.8889 16.7833 49.4722 20.65 51.0833C22.8564 52.0017 24.4321 54.6681 26.1793 57.6244C29.0238 62.4336 32.3128 68 39.5 68C47.2333 68 52.0667 61.5556 54 48.6667C51.1 55.1111 47.7167 57.5278 43.85 55.9167C41.6436 54.9983 40.0679 52.3319 38.3207 49.3756C35.4787 44.5664 32.1896 39 25 39Z" fill="#1B0131"/>
</svg>
