<svg width="79" height="78" viewBox="0 0 79 78" fill="none" xmlns="http://www.w3.org/2000/svg">
<rect width="79" height="78" rx="10" fill="#0FB53E"/>
<path d="M66.6416 10H12.3537C11.9945 10.0006 11.6501 10.1463 11.3963 10.405C11.1425 10.6637 11 11.0143 11 11.3799V66.6201C10.9997 66.8014 11.0346 66.981 11.1026 67.1486C11.1706 67.3161 11.2705 67.4684 11.3965 67.5966C11.5225 67.7248 11.6721 67.8264 11.8368 67.8956C12.0014 67.9648 12.1779 68.0003 12.3561 68H66.6439C66.822 68 66.9984 67.9643 67.1629 67.895C67.3274 67.8256 67.4769 67.724 67.6028 67.5958C67.7287 67.4677 67.8286 67.3156 67.8968 67.1482C67.9649 66.9808 68 66.8013 68 66.6201V11.3774C67.9997 11.1962 67.9643 11.0169 67.8959 10.8496C67.8274 10.6823 67.7273 10.5304 67.6011 10.4024C67.475 10.2745 67.3253 10.1732 67.1607 10.1041C66.996 10.0351 66.8196 9.99968 66.6416 10ZM44.9278 40.9949H38.1427V62.4733H32.7137V40.9949H25.9286V36.2367H44.9278V40.9949ZM46.4478 61.2457V55.5064C46.4478 55.5064 49.5304 57.8698 53.2281 57.8698C56.9258 57.8698 56.7833 55.4097 56.7833 55.0714C56.7833 51.5021 46.3053 51.5021 46.3053 43.5903C46.3053 32.8317 61.5735 37.0776 61.5735 37.0776L61.3835 42.1911C61.3835 42.1911 58.8234 40.4536 55.9308 40.4536C53.0381 40.4536 51.9955 41.8552 51.9955 43.3486C51.9955 47.2079 62.5686 46.8236 62.5686 54.5905C62.5686 66.5525 46.4478 61.2481 46.4478 61.2481V61.2457Z" fill="#1B0131"/>
</svg>
