<svg width="746" height="207" viewBox="0 0 746 207" fill="none" xmlns="http://www.w3.org/2000/svg">
<path d="M52.416 44.816L19.008 57.488L52.416 71.312V88.72L0.448 64.912V50.832L52.416 27.408V44.816ZM624.172 147.488L590.764 134.816V117.408L642.732 140.832V154.912L590.764 178.72V161.312L624.172 147.488Z" fill="#0FB53E"/>
<path d="M89.993 60.944C89.993 71.0987 95.1557 76.176 105.481 76.176C115.806 76.176 120.969 71.0987 120.969 60.944V2.96H138.633V60.56C138.633 71.2267 135.86 79.0773 130.313 84.112C124.852 89.0613 116.574 91.536 105.481 91.536C94.3877 91.536 86.0677 89.0613 80.521 84.112C75.0597 79.0773 72.329 71.2267 72.329 60.56V2.96H89.993V60.944ZM168.111 2.96L184.239 34.96L200.751 2.96H219.055L193.967 47.376L219.055 90H199.471L183.343 59.92L166.831 90H148.527L173.615 48.272L148.527 2.96H168.111ZM257.847 90V2.96H313.399V18.32H275.511V43.92H306.487V59.28H275.511V90H257.847ZM322.186 90V26H339.21V32.784C346.378 28.5173 353.205 25.744 359.69 24.464V41.744C352.778 43.1947 346.847 44.688 341.898 46.224L339.338 47.12V90H322.186ZM373.267 33.296C377.79 27.408 385.342 24.464 395.923 24.464C406.504 24.464 414.056 27.408 418.579 33.296C423.102 39.0987 425.363 47.2907 425.363 57.872C425.363 80.3147 415.55 91.536 395.923 91.536C376.296 91.536 366.483 80.3147 366.483 57.872C366.483 47.2907 368.744 39.0987 373.267 33.296ZM386.451 72.336C388.243 75.408 391.4 76.944 395.923 76.944C400.446 76.944 403.56 75.408 405.267 72.336C407.059 69.264 407.955 64.4427 407.955 57.872C407.955 51.3013 407.059 46.5227 405.267 43.536C403.56 40.5493 400.446 39.056 395.923 39.056C391.4 39.056 388.243 40.5493 386.451 43.536C384.744 46.5227 383.891 51.3013 383.891 57.872C383.891 64.4427 384.744 69.264 386.451 72.336ZM455.088 90H437.936V26H454.96V29.584C460.763 26.1707 466.096 24.464 470.96 24.464C479.493 24.464 485.381 26.9813 488.624 32.016C491.867 37.0507 493.488 44.816 493.488 55.312V90H476.336V55.824C476.336 50.3627 475.696 46.352 474.416 43.792C473.136 41.1467 470.576 39.824 466.736 39.824C463.237 39.824 459.867 40.4213 456.624 41.616L455.088 42.128V90ZM544.142 40.592H528.398V66.832C528.398 69.392 528.441 71.2267 528.526 72.336C528.697 73.36 529.166 74.256 529.934 75.024C530.787 75.792 532.067 76.176 533.774 76.176L543.502 75.92L544.27 89.616C538.553 90.896 534.201 91.536 531.214 91.536C523.534 91.536 518.286 89.8293 515.47 86.416C512.654 82.9173 511.246 76.5173 511.246 67.216V40.592H503.694V26H511.246V8.20799H528.398V26H544.142V40.592ZM569.391 65.296C569.476 69.2213 570.5 72.08 572.463 73.872C574.511 75.5787 577.412 76.432 581.167 76.432C589.103 76.432 596.186 76.176 602.415 75.664L605.999 75.28L606.255 87.952C596.442 90.3413 587.567 91.536 579.631 91.536C569.988 91.536 562.991 88.976 558.639 83.856C554.287 78.736 552.111 70.416 552.111 58.896C552.111 35.9413 561.54 24.464 580.399 24.464C599.002 24.464 608.303 34.1067 608.303 53.392L607.023 65.296H569.391ZM591.407 52.24C591.407 47.12 590.596 43.5787 588.975 41.616C587.354 39.568 584.495 38.544 580.399 38.544C576.388 38.544 573.53 39.6107 571.823 41.744C570.202 43.792 569.348 47.2907 569.263 52.24H591.407ZM637.713 90H620.561V26H637.585V29.584C643.388 26.1707 648.721 24.464 653.585 24.464C662.118 24.464 668.006 26.9813 671.249 32.016C674.492 37.0507 676.113 44.816 676.113 55.312V90H658.961V55.824C658.961 50.3627 658.321 46.352 657.041 43.792C655.761 41.1467 653.201 39.824 649.361 39.824C645.862 39.824 642.492 40.4213 639.249 41.616L637.713 42.128V90ZM745.711 0.399994V90H728.687V87.312C722.714 90.128 717.551 91.536 713.199 91.536C703.898 91.536 697.412 88.848 693.743 83.472C690.074 78.096 688.239 69.6053 688.239 58C688.239 46.3093 690.415 37.8187 694.767 32.528C699.204 27.152 705.86 24.464 714.735 24.464C717.466 24.464 721.263 24.8907 726.127 25.744L728.559 26.256V0.399994H745.711ZM726.767 74.64L728.559 74.256V40.592C723.866 39.7387 719.684 39.312 716.015 39.312C709.103 39.312 705.647 45.456 705.647 57.744C705.647 64.4 706.415 69.136 707.951 71.952C709.487 74.768 712.004 76.176 715.503 76.176C719.087 76.176 722.842 75.664 726.767 74.64ZM30.784 180H1.472V92.96H30.784C38.2933 92.96 44.48 93.7707 49.344 95.392C54.208 96.928 57.9627 99.5307 60.608 103.2C63.3387 106.784 65.216 111.051 66.24 116C67.264 120.864 67.776 127.221 67.776 135.072C67.776 142.923 67.3067 149.451 66.368 154.656C65.4293 159.776 63.6373 164.384 60.992 168.48C58.432 172.491 54.6773 175.435 49.728 177.312C44.7787 179.104 38.464 180 30.784 180ZM49.344 145.44C49.5147 142.709 49.6 138.955 49.6 134.176C49.6 129.312 49.4293 125.429 49.088 122.528C48.7467 119.627 47.936 116.981 46.656 114.592C45.376 112.203 43.456 110.581 40.896 109.728C38.4213 108.789 35.0507 108.32 30.784 108.32H19.136V164.64H30.784C37.184 164.64 41.8347 163.019 44.736 159.776C47.2107 157.131 48.7467 152.352 49.344 145.44ZM95.641 155.296C95.7263 159.221 96.7503 162.08 98.713 163.872C100.761 165.579 103.662 166.432 107.417 166.432C115.353 166.432 122.436 166.176 128.665 165.664L132.249 165.28L132.505 177.952C122.692 180.341 113.817 181.536 105.881 181.536C96.2383 181.536 89.241 178.976 84.889 173.856C80.537 168.736 78.361 160.416 78.361 148.896C78.361 125.941 87.7903 114.464 106.649 114.464C125.252 114.464 134.553 124.107 134.553 143.392L133.273 155.296H95.641ZM117.657 142.24C117.657 137.12 116.846 133.579 115.225 131.616C113.604 129.568 110.745 128.544 106.649 128.544C102.638 128.544 99.7797 129.611 98.073 131.744C96.4517 133.792 95.5983 137.291 95.513 142.24H117.657ZM140.045 116H157.965L168.205 165.408H171.789L182.541 116H199.949L184.589 180H155.405L140.045 116ZM223.016 155.296C223.101 159.221 224.125 162.08 226.088 163.872C228.136 165.579 231.037 166.432 234.792 166.432C242.728 166.432 249.811 166.176 256.04 165.664L259.624 165.28L259.88 177.952C250.067 180.341 241.192 181.536 233.256 181.536C223.613 181.536 216.616 178.976 212.264 173.856C207.912 168.736 205.736 160.416 205.736 148.896C205.736 125.941 215.165 114.464 234.024 114.464C252.627 114.464 261.928 124.107 261.928 143.392L260.648 155.296H223.016ZM245.032 142.24C245.032 137.12 244.221 133.579 242.6 131.616C240.979 129.568 238.12 128.544 234.024 128.544C230.013 128.544 227.155 129.611 225.448 131.744C223.827 133.792 222.973 137.291 222.888 142.24H245.032ZM274.954 180V90.4H292.106V180H274.954ZM312.142 123.296C316.665 117.408 324.217 114.464 334.798 114.464C345.379 114.464 352.931 117.408 357.454 123.296C361.977 129.099 364.238 137.291 364.238 147.872C364.238 170.315 354.425 181.536 334.798 181.536C315.171 181.536 305.358 170.315 305.358 147.872C305.358 137.291 307.619 129.099 312.142 123.296ZM325.326 162.336C327.118 165.408 330.275 166.944 334.798 166.944C339.321 166.944 342.435 165.408 344.142 162.336C345.934 159.264 346.83 154.443 346.83 147.872C346.83 141.301 345.934 136.523 344.142 133.536C342.435 130.549 339.321 129.056 334.798 129.056C330.275 129.056 327.118 130.549 325.326 133.536C323.619 136.523 322.766 141.301 322.766 147.872C322.766 154.443 323.619 159.264 325.326 162.336ZM376.811 206.88V116H393.835V119.456C399.382 116.128 404.246 114.464 408.427 114.464C417.046 114.464 423.403 117.067 427.499 122.272C431.595 127.392 433.643 136.139 433.643 148.512C433.643 160.885 431.382 169.504 426.859 174.368C422.336 179.147 414.912 181.536 404.587 181.536C401.771 181.536 398.742 181.28 395.499 180.768L393.963 180.512V206.88H376.811ZM405.099 129.824C401.942 129.824 398.742 130.464 395.499 131.744L393.963 132.384V165.92C397.803 166.432 400.918 166.688 403.307 166.688C408.256 166.688 411.627 165.237 413.419 162.336C415.296 159.435 416.235 154.485 416.235 147.488C416.235 135.712 412.523 129.824 405.099 129.824ZM460.516 155.296C460.601 159.221 461.625 162.08 463.588 163.872C465.636 165.579 468.537 166.432 472.292 166.432C480.228 166.432 487.311 166.176 493.54 165.664L497.124 165.28L497.38 177.952C487.567 180.341 478.692 181.536 470.756 181.536C461.113 181.536 454.116 178.976 449.764 173.856C445.412 168.736 443.236 160.416 443.236 148.896C443.236 125.941 452.665 114.464 471.524 114.464C490.127 114.464 499.428 124.107 499.428 143.392L498.148 155.296H460.516ZM482.532 142.24C482.532 137.12 481.721 133.579 480.1 131.616C478.479 129.568 475.62 128.544 471.524 128.544C467.513 128.544 464.655 129.611 462.948 131.744C461.327 133.792 460.473 137.291 460.388 142.24H482.532ZM511.686 180V116H528.71V122.784C535.878 118.517 542.705 115.744 549.19 114.464V131.744C542.278 133.195 536.347 134.688 531.398 136.224L528.838 137.12V180H511.686Z" fill="white"/>
</svg>
