<svg width="29" height="30" viewBox="0 0 29 30" fill="none" xmlns="http://www.w3.org/2000/svg">
<g id="carbon:user-profile">
<path id="Vector" d="M10.875 4.125C11.7712 4.125 12.6473 4.39075 13.3924 4.88865C14.1376 5.38655 14.7184 6.09424 15.0613 6.92222C15.4043 7.75019 15.494 8.66128 15.3192 9.54025C15.1443 10.4192 14.7128 11.2266 14.0791 11.8603C13.4454 12.494 12.638 12.9256 11.759 13.1004C10.88 13.2753 9.96894 13.1855 9.14097 12.8426C8.31299 12.4996 7.6053 11.9188 7.1074 11.1737C6.6095 10.4285 6.34375 9.55245 6.34375 8.65625C6.34375 7.45449 6.82115 6.30195 7.67092 5.45217C8.5207 4.6024 9.67324 4.125 10.875 4.125M10.875 2.3125C9.62032 2.3125 8.39383 2.68455 7.3506 3.38161C6.30738 4.07867 5.49428 5.06943 5.01414 6.2286C4.534 7.38777 4.40837 8.66329 4.65314 9.89385C4.89792 11.1244 5.5021 12.2548 6.38929 13.142C7.27648 14.0291 8.40683 14.6333 9.6374 14.8781C10.868 15.1229 12.1435 14.9973 13.3026 14.5171C14.4618 14.037 15.4526 13.2239 16.1496 12.1806C16.8467 11.1374 17.2188 9.91093 17.2188 8.65625C17.2188 6.97378 16.5504 5.36023 15.3607 4.17054C14.171 2.98086 12.5575 2.3125 10.875 2.3125V2.3125ZM19.9375 27.6875H18.125V23.1562C18.125 21.9545 17.6476 20.8019 16.7978 19.9522C15.9481 19.1024 14.7955 18.625 13.5938 18.625H8.15625C6.95449 18.625 5.80195 19.1024 4.95217 19.9522C4.1024 20.8019 3.625 21.9545 3.625 23.1562V27.6875H1.8125V23.1562C1.8125 21.4738 2.48086 19.8602 3.67054 18.6705C4.86023 17.4809 6.47378 16.8125 8.15625 16.8125H13.5938C15.2762 16.8125 16.8898 17.4809 18.0795 18.6705C19.2691 19.8602 19.9375 21.4738 19.9375 23.1562V27.6875ZM19.9375 4.125H29V5.9375H19.9375V4.125ZM19.9375 8.65625H29V10.4688H19.9375V8.65625ZM19.9375 13.1875H26.2812V15H19.9375V13.1875Z" fill="#230C36"/>
</g>
</svg>
