<svg width="79" height="78" viewBox="0 0 79 78" fill="none" xmlns="http://www.w3.org/2000/svg">
<rect width="79" height="78" rx="10" fill="#0FB53E"/>
<path d="M12.6899 34.9079L29.1753 18.1043L33.9954 23.038C33.3109 25.5049 34.4232 28.2039 36.6479 29.5099V45.5879C34.9366 46.5747 33.7957 48.4611 33.7957 50.6087C33.7957 52.1481 34.3967 53.6245 35.4665 54.713C36.5362 55.8015 37.9871 56.4131 39.5 56.4131C41.0129 56.4131 42.4638 55.8015 43.5335 54.713C44.6033 53.6245 45.2043 52.1481 45.2043 50.6087C45.2043 48.4611 44.0634 46.5747 42.3521 45.5879V31.4834L48.2561 37.5489C48.0564 37.9842 48.0564 38.4776 48.0564 39C48.0564 40.5394 48.6574 42.0158 49.7272 43.1043C50.7969 44.1928 52.2478 44.8044 53.7607 44.8044C55.2736 44.8044 56.7245 44.1928 57.7942 43.1043C58.864 42.0158 59.465 40.5394 59.465 39C59.465 37.4606 58.864 35.9842 57.7942 34.8957C56.7245 33.8072 55.2736 33.1957 53.7607 33.1957C53.2473 33.1957 52.7624 33.1956 52.3346 33.3988L45.0046 25.9402C45.3588 24.596 45.2215 23.1667 44.6182 21.9178C44.015 20.6688 42.9869 19.685 41.7247 19.1491C40.4983 18.6848 39.2148 18.5687 38.0739 18.8879L33.2253 13.9832L35.4785 11.7195C37.7032 9.42682 41.2969 9.42682 43.5215 11.7195L66.3101 34.9079C68.5633 37.1716 68.5633 40.8284 66.3101 43.0921L43.5215 66.2805C41.2969 68.5732 37.7032 68.5732 35.4785 66.2805L12.6899 43.0921C10.4367 40.8284 10.4367 37.1716 12.6899 34.9079Z" fill="#1B0131"/>
</svg>
